# xmcd
#
# Track frame offsets:
#	150
#	16890
#	32455
#	49800
#	62837
#	80857
#	97805
#	113082
#	127230
#	143480
#
# Disc length: 2097 seconds
#
# Revision: 0
# Processed by: cddbd v1.5.2PL0 Copyright (c) Steve Scherf et al.
# Submitted via: EasyCDDAExtractor 15.2.5.1
#
DISCID=7f082f0a
DTITLE=JimCollins - The Next Step
DYEAR=1998
DGENRE=country
TTITLE0=Helplessly Hopelessly Yours
TTITLE1=That's As Far As It Goes
TTITLE2=TheNext Step
TTITLE3=Not Me
TTITLE4=Let the Guitar Do The Talkin'
TTITLE5=Two Hearts Never Break Even
TTITLE6=My First, Last, One And Only
TTITLE7=Mind Over Matters Of The Heart
TTITLE8=Are You Gonna Stay Or Go
TTITLE9=I Can't Let Go Now
EXTD=
EXTT0=
EXTT1=
EXTT2=
EXTT3=
EXTT4=
EXTT5=
EXTT6=
EXTT7=
EXTT8=
EXTT9=
PLAYORDER=
